<svg width="34" height="47" viewBox="0 0 34 47" fill="none" xmlns="http://www.w3.org/2000/svg">
<path d="M33.0746 43.7557C33.0746 45.1843 31.8842 46.3748 30.4555 46.3748H2.95495C1.52635 46.3748 0.335846 45.1843 0.335846 43.7557V3.39767C0.335846 1.96907 1.52635 0.778564 2.95495 0.778564H20.6934L33.1937 13.5169V43.7557H33.0746Z" fill="#23A566"/>
<path d="M22.003 13.1598L33.0747 23.7552V13.5169H23.3126C22.8364 13.5169 22.3602 13.3979 22.003 13.1598Z" fill="#1C8F5A"/>
<path d="M33.0747 13.5169H23.1935C21.7649 13.5169 20.5744 12.3264 20.5744 10.8978V0.778564L33.0747 13.5169Z" fill="#8ED1B1"/>
<path fill-rule="evenodd" clip-rule="evenodd" d="M25.2174 37.9222H8.19318V23.16H25.2174V37.9222ZM17.7172 25.3029V27.922H23.0745V25.3029H17.7172ZM17.7172 29.4697V31.9697H23.0745V29.4697H17.7172ZM17.7172 33.5174V35.7793H23.0745V33.5174H17.7172ZM15.6933 35.8984V33.6364H10.3361V35.8984H15.6933ZM15.6933 31.9697V29.4697H10.3361V31.9697H15.6933ZM15.6933 27.922V25.3029H10.3361V27.922H15.6933Z" fill="white"/>
</svg>
