<svg width="47" height="52" viewBox="0 0 47 52" fill="none" xmlns="http://www.w3.org/2000/svg">
<path fill-rule="evenodd" clip-rule="evenodd" d="M46.512 44.6474C46.512 48.0999 43.6548 50.9571 40.2023 51.0761C39.9642 51.0761 39.7261 51.0761 39.369 51.0761C36.1546 50.5999 33.7736 47.7427 33.7736 44.5284V6.67042C33.6546 3.33702 36.0356 0.598864 39.369 0.122663C42.9405 -0.353538 46.0358 2.14652 46.512 5.59897C46.512 5.83707 46.512 6.07517 46.512 6.31327V44.6474Z" fill="#F9AB00"/>
<path fill-rule="evenodd" clip-rule="evenodd" d="M6.74924 38.4568C10.2017 38.4568 13.0589 41.3141 13.0589 44.7665C13.0589 48.219 10.2017 51.0762 6.74924 51.0762C3.29678 51.0762 0.439575 48.219 0.439575 44.7665C0.439575 41.195 3.29678 38.4568 6.74924 38.4568ZM23.4163 19.2898C19.9638 19.5279 17.2257 22.3851 17.2257 25.9566V42.9808C17.2257 47.6237 19.2495 50.3619 22.2258 50.9571C25.6782 51.6714 29.0116 49.4095 29.7259 45.957C29.845 45.4808 29.845 45.1237 29.845 44.6475V25.5994C29.845 22.147 26.9878 19.2898 23.4163 19.2898Z" fill="#E37400"/>
</svg>
