<svg width="49" height="49" viewBox="0 0 49 49" fill="none" xmlns="http://www.w3.org/2000/svg">
<path d="M46.4472 48.8034H2.16048C0.96998 48.8034 0.0175781 47.851 0.0175781 46.6605V2.49289C0.0175781 1.30238 0.96998 0.349983 2.16048 0.349983H46.3281C47.5186 0.349983 48.471 1.30238 48.471 2.49289V46.6605C48.5901 47.851 47.6377 48.8034 46.4472 48.8034Z" fill="#716DA2"/>
<path d="M27.9944 11.8978C29.0658 11.8978 30.8516 12.0169 33.5897 12.255C37.0422 12.4931 38.3517 13.6836 38.5898 14.0407C38.5898 14.0407 38.8279 14.3979 38.947 14.636C39.1851 15.8265 39.4232 16.4217 37.7565 19.1599C35.2564 23.4457 29.542 24.7552 28.2325 24.8743L27.9944 11.8978ZM25.9705 8.80251C25.4943 8.80251 24.8991 9.04062 25.0181 10.1121L25.3753 36.5412C25.3753 36.5412 24.78 37.3746 23.7086 37.3746C23.1133 37.3746 22.5181 37.1365 21.6847 36.5412C21.2085 36.1841 20.8514 36.065 20.6133 36.065C19.4227 36.065 19.6609 38.5651 20.4942 39.1603C21.2085 39.6365 22.399 40.3508 23.9467 40.3508C24.8991 40.3508 25.9705 39.9937 27.042 38.9222C27.042 38.9222 28.1134 37.3746 28.1134 35.946C28.1134 34.3983 28.1134 27.7315 28.1134 27.7315C28.1134 27.7315 35.9707 27.0172 39.6613 20.5885C43.3518 14.1598 41.2089 12.374 41.2089 12.374C41.2089 12.374 39.6613 9.39777 33.7088 9.04061C27.7563 8.68346 26.2086 8.68346 26.2086 8.68346C26.2086 8.68346 26.2086 8.80251 25.9705 8.80251Z" fill="white"/>
<path d="M20.4942 27.7315C20.4942 27.7315 12.6369 27.0172 8.94635 20.5885C5.25579 14.1598 7.3987 12.374 7.3987 12.374C7.3987 12.374 8.94635 9.51683 14.8989 9.15968C20.8514 8.80253 22.399 8.80253 22.399 8.80253C22.399 8.80253 23.2324 8.56443 23.2324 9.99303C23.2324 9.99303 23.4705 24.2791 23.4705 27.6125C23.4705 28.4458 20.4942 27.7315 20.4942 27.7315Z" fill="white"/>
</svg>
