<svg width="90" height="47" viewBox="0 0 90 47" fill="none" xmlns="http://www.w3.org/2000/svg">
<path d="M0.859848 42.4536H3.8361V30.9057L8.36001 41.025C8.83621 42.2155 9.66956 42.6917 11.0982 42.6917C12.5268 42.6917 13.2411 42.2155 13.7173 41.025L18.2412 30.9057V42.4536H21.2174V30.9057C21.2174 29.8342 20.7412 29.239 19.7888 29.0009C17.5269 28.2866 16.0983 28.8818 15.384 30.4295L10.9791 40.3107L6.69331 30.4295C6.09806 28.8818 4.5504 28.2866 2.28845 29.0009C1.33605 29.239 0.859848 29.8342 0.859848 30.9057V42.4536Z" fill="#006189"/>
<path d="M23.5985 33.0486H26.5748V39.3582C26.5748 39.7154 26.6939 40.5487 28.2415 40.5487C29.0749 40.5487 34.5512 40.5487 34.5512 40.5487V32.9295H37.5274V43.2869C37.5274 45.787 34.3131 46.3822 32.8845 46.3822H23.5985V44.3584H32.8845C34.7893 44.1203 34.5512 43.1679 34.5512 42.9298V42.2155H28.3606C25.5034 42.2155 23.5985 40.9059 23.5985 39.4773V33.0486Z" fill="#006189"/>
<path d="M39.7894 42.4536H48.242C49.1944 42.4536 50.1468 42.2155 50.9801 41.8583C52.2897 41.2631 52.8849 40.4297 52.8849 39.4773V37.3344C52.8849 36.5011 52.1706 35.6677 50.8611 35.1915C50.1468 34.9534 49.1944 34.7153 48.361 34.7153H44.7895C43.599 34.7153 43.0038 34.3582 42.8847 33.5248C42.8847 33.4058 42.8847 33.4058 42.8847 33.2867V31.9772C42.8847 31.8581 42.8847 31.8581 42.8847 31.7391C43.0038 31.1438 43.3609 31.0248 44.4324 30.9057C44.5514 30.9057 44.6705 30.9057 44.6705 30.9057H53.004V29.0009H44.7895C43.599 29.0009 43.0038 29.1199 42.4085 29.239C40.6227 29.8343 39.9085 30.6676 39.9085 32.0962V33.7629C39.9085 35.0725 41.4561 36.1439 43.9562 36.5011C44.1943 36.5011 44.5514 36.5011 44.7895 36.5011H47.6467C47.7658 36.5011 47.8848 36.5011 48.0039 36.5011C48.9563 36.6201 49.3134 36.7392 49.5515 37.0963C49.6706 37.2154 49.7896 37.4535 49.7896 37.5725V39.2392C49.7896 39.4773 49.6706 39.7154 49.3134 39.9535C49.0753 40.1916 48.5991 40.3107 48.1229 40.3107C48.0039 40.3107 47.8848 40.3107 47.7658 40.3107H39.6703V42.4536H39.7894Z" fill="#E48F00"/>
<path d="M70.9805 39.0011C70.9805 41.025 72.5281 42.0964 75.5044 42.3345C75.7425 42.3345 76.0996 42.3345 76.3377 42.3345H83.9569V40.4297H76.2187C74.552 40.4297 73.8377 39.9535 73.8377 39.0011V28.8818H70.8614L70.9805 39.0011Z" fill="#E48F00"/>
<path d="M54.6707 39.1202V32.2153C54.6707 30.4295 55.8612 29.3581 58.3612 29.0009C58.5993 29.0009 58.8374 29.0009 59.1946 29.0009H64.7899C65.028 29.0009 65.2661 29.0009 65.6233 29.0009C68.1233 29.3581 69.3138 30.4295 69.3138 32.2153V39.1202C69.3138 40.5488 68.8376 41.2631 67.5281 41.8583L70.3853 44.4774H66.9328L64.5518 42.3345L62.1708 42.4536H59.0755C58.5993 42.4536 58.0041 42.3345 57.4088 42.2155C55.504 41.7393 54.6707 40.7869 54.6707 39.1202ZM57.766 39.0011C57.766 39.1202 57.766 39.2392 57.766 39.3583C57.885 40.1916 58.7184 40.6678 59.9089 40.6678H62.528L60.0279 38.4059H63.4804L65.6233 40.3107C65.9804 40.0726 66.2185 39.8345 66.3376 39.3583C66.3376 39.2392 66.3376 39.1202 66.3376 39.1202V32.4534C66.3376 32.3343 66.3376 32.3343 66.3376 32.2153C66.2185 31.501 65.3852 31.0248 64.3137 31.0248H59.9089C58.5993 31.0248 57.766 31.62 57.766 32.4534V39.0011Z" fill="#E48F00"/>
<path d="M86.576 25.6675C84.7902 25.6675 83.3616 25.7865 82.1711 26.2627C81.814 26.3818 81.3378 26.3818 81.2187 26.858C81.4568 27.0961 81.4568 27.3342 81.5759 27.5723C81.814 28.0485 82.2902 28.6437 82.7664 29.0009C83.2426 29.358 83.7188 29.7152 84.195 30.0723C85.0283 30.6676 86.0998 30.9057 86.9331 31.5009C87.4093 31.8581 87.8855 32.2152 88.3617 32.5724C88.5998 32.6914 88.7189 33.0486 89.0761 33.1676C88.957 32.9295 88.838 32.6914 88.7189 32.4533C88.4808 32.2152 88.2427 31.9771 88.0046 31.739C87.4094 30.9057 86.576 30.0723 85.6236 29.4771C84.9093 29.0009 83.3616 28.2866 83.1235 27.4532C83.5997 27.4532 84.195 27.2151 84.6712 27.0961C85.3855 26.858 86.0998 26.977 86.9331 26.7389C87.2903 26.6199 87.6475 26.5008 88.0046 26.3818C88.0046 26.2627 88.0046 26.2627 88.0046 26.1437C87.6475 25.7865 87.2903 25.1913 86.9331 24.8341C85.7426 23.8817 84.5521 22.9293 83.2426 22.096C82.5283 21.6198 81.6949 21.3817 80.8616 21.0245C80.6235 20.9055 80.1473 20.7864 80.0282 20.6674C79.6711 20.1912 79.433 19.4769 79.0758 18.8816C78.4806 17.6911 77.7663 16.2625 77.2901 14.953C76.9329 14.1196 76.6948 13.1672 76.2186 12.4529C73.8376 8.64329 71.4566 6.38134 67.528 4.11938C66.6946 3.64318 65.7422 3.40508 64.6708 3.16698C64.0755 3.16698 63.5993 3.04793 63.0041 3.04793C62.6469 2.92888 62.2898 2.45268 61.9326 2.33363C60.6231 1.50028 57.4087 -0.285473 56.4563 2.09553C55.8611 3.52413 57.4087 4.95274 57.8849 5.66704C58.2421 6.14324 58.7183 6.73849 58.9564 7.33374C59.0754 7.69089 59.1945 8.04804 59.3135 8.52424C59.6707 9.47664 60.0278 10.6671 60.504 11.5005C60.7421 11.9767 60.9802 12.4529 61.3374 12.9291C61.5755 13.1672 61.8136 13.2862 61.9326 13.6434C61.5755 14.1196 61.5755 14.7149 61.4564 15.3101C60.6231 17.8102 60.9802 20.9055 62.1707 22.8103C62.5279 23.4055 63.3612 24.596 64.5517 24.1198C65.5041 23.7627 65.3851 22.4531 65.6232 21.2626C65.7422 21.0245 65.6232 20.7864 65.7422 20.6674C66.0994 21.2626 66.3375 21.8579 66.6946 22.4531C67.4089 23.5246 68.5994 24.7151 69.5518 25.4294C70.028 25.7865 70.5042 26.5008 71.2185 26.7389C71.0995 26.5008 70.8614 26.5008 70.7423 26.2627C70.3852 25.9056 69.909 25.4294 69.5518 24.9532C68.5994 23.6436 67.7661 22.3341 67.0518 20.9055C66.6946 20.1912 66.3375 19.4769 66.0994 18.7626C65.9803 18.5245 65.9803 18.0483 65.7422 17.9292C65.3851 18.4054 64.9089 18.8816 64.6708 19.4769C64.3136 20.4293 64.1946 21.6198 64.0755 22.8103C63.9565 22.8103 64.0755 22.8103 63.9565 22.8103C63.2422 22.6912 63.0041 21.8579 62.766 21.2626C62.0517 19.715 61.9326 17.0959 62.5279 15.3101C62.6469 14.8339 63.3612 13.2862 63.1231 12.9291C63.0041 12.4529 62.5279 12.2148 62.2898 11.8576C61.9326 11.5005 61.6945 10.9052 61.4564 10.429C60.8612 9.23854 60.6231 7.80994 60.0278 6.50039C59.7897 5.90514 59.3135 5.30989 58.9564 4.71464C58.4802 4.11938 58.004 3.64318 57.7659 2.92888C57.6468 2.69078 57.5278 2.21458 57.6468 1.97648C57.6468 1.85743 57.7659 1.73838 58.004 1.61933C58.2421 1.38123 59.0754 1.73838 59.4326 1.85743C60.2659 2.21458 60.9802 2.57173 61.5755 2.92888C61.9326 3.16698 62.2898 3.52413 62.6469 3.64318C62.766 3.64318 63.0041 3.64318 63.1231 3.64318C63.8374 3.76223 64.6708 3.64318 65.266 3.88128C66.4565 4.23843 67.528 4.83369 68.4804 5.42894C71.4566 7.33374 73.8376 9.95284 75.5043 13.0481C75.7424 13.5243 75.8615 14.0006 76.0996 14.5958C76.5758 15.6673 77.171 16.8578 77.6472 17.8102C78.1234 18.8816 78.5996 19.9531 79.1949 20.7864C79.552 21.2626 80.8616 21.5007 81.4568 21.7388C81.933 21.9769 82.5283 22.096 83.0045 22.3341C83.8378 22.8103 84.5521 23.4055 85.2664 23.8817C85.3855 24.7151 86.4569 25.1913 86.576 25.6675Z" fill="#006189"/>
<path fill-rule="evenodd" clip-rule="evenodd" d="M63.7184 6.14323C63.3612 6.14323 63.1231 6.14323 62.766 6.26228C63.0041 6.61944 63.2422 6.85754 63.4803 7.21469C63.5993 7.57184 63.8374 7.92899 63.9565 8.28614C64.3136 8.04804 64.4327 7.69089 64.4327 7.21469C64.4327 7.09564 64.4327 6.85754 64.3136 6.73849C64.1946 6.50038 63.8374 6.38133 63.7184 6.14323Z" fill="#006189"/>
<path fill-rule="evenodd" clip-rule="evenodd" d="M85.3855 40.4297C85.3855 41.7392 86.457 42.5726 87.5284 42.5726C88.7189 42.5726 89.6713 41.7392 89.6713 40.4297C89.6713 39.1201 88.5999 38.2868 87.5284 38.2868C86.3379 38.2868 85.3855 39.1201 85.3855 40.4297ZM89.1951 40.4297C89.1951 41.3821 88.4808 42.0964 87.5284 42.0964C86.576 42.0964 85.8617 41.3821 85.8617 40.4297C85.8617 39.4773 86.576 38.763 87.5284 38.763C88.4808 38.763 89.1951 39.4773 89.1951 40.4297ZM88.1237 41.6202H88.5999L87.8856 40.5487C88.2427 40.5487 88.5999 40.3106 88.5999 39.8344C88.5999 39.3582 88.2427 39.1201 87.6475 39.1201H86.6951V41.6202H87.0522V40.5487H87.4094L88.1237 41.6202ZM87.0522 40.1916V39.4773H87.5284C87.7665 39.4773 88.1237 39.4773 88.1237 39.8344C88.1237 40.1916 87.8856 40.1916 87.5284 40.1916H87.0522Z" fill="#E48F00"/>
</svg>
