<svg width="49" height="51" viewBox="0 0 49 51" fill="none" xmlns="http://www.w3.org/2000/svg">
<path d="M36.7749 36.8931C37.1321 34.274 37.013 33.9168 38.9179 34.274H39.3941C40.9417 34.393 42.8465 34.0359 44.037 33.4406C46.5371 32.2501 47.9657 30.3453 45.5847 30.8215C39.9893 32.012 39.6322 30.1072 39.6322 30.1072C45.5847 21.2975 47.9657 10.2258 45.8228 7.48768C39.9893 0.225618 29.87 3.79712 29.751 3.79712C28.6795 3.55902 27.37 3.43997 26.0604 3.43997C23.5604 3.43997 21.6556 4.15428 20.1079 5.22573C20.1079 5.22573 2.13134 -2.15539 2.96469 14.5116C3.08374 18.0831 8.08385 41.417 13.9173 34.393C16.0602 31.7739 18.0841 29.631 18.0841 29.631C19.1555 30.3453 20.346 30.7025 21.6556 30.5834L21.7746 30.4644C21.7746 30.8215 21.7746 31.1787 21.7746 31.4168C20.227 33.0835 20.7032 33.4406 17.7269 34.0359C14.6316 34.6311 16.4174 35.8216 17.6079 36.0597C19.0365 36.4169 22.3699 36.8931 24.5128 33.7978V34.1549C25.108 34.6311 25.108 37.6074 25.108 39.6312C25.2271 41.7741 25.3461 43.6789 25.7033 44.8694C26.1795 46.0599 26.6557 49.0362 30.5843 48.2029C33.9177 47.4885 36.5368 46.4171 36.7749 36.8931Z" fill="black"/>
<path d="M29.3939 50.3458C26.7748 50.3458 24.989 48.7981 23.9176 45.8219C23.9176 45.7028 23.7985 45.5838 23.7985 45.4647C23.3223 44.1552 23.0842 42.2503 22.9652 39.6312C22.9652 39.2741 22.9652 38.7979 22.9652 38.4407C22.9652 38.2026 22.9652 37.9645 22.9652 37.6074C21.2985 38.3217 19.2746 38.4407 17.1317 37.9645C16.1793 37.7264 15.2269 37.2502 14.6316 36.5359C12.9649 37.9645 11.2982 37.7264 10.4649 37.4883C4.15522 35.3454 1.05992 16.1784 0.940869 14.6307C0.583718 9.39249 2.01232 5.58289 5.10763 3.43998C9.86963 0.106576 17.1317 2.01138 19.7508 2.96378C21.5366 1.89233 23.5604 1.41613 25.9414 1.41613C27.251 1.41613 28.3224 1.53518 29.5129 1.77328C32.4892 0.820878 41.656 -0.845825 47.3704 6.41624C50.3467 10.2258 47.3704 21.1785 42.6084 29.3929C43.2037 29.3929 44.037 29.2739 45.1085 29.0358C47.8466 28.4405 48.561 30.1072 48.7991 30.5834C49.6324 33.0835 46.0609 34.9883 44.9894 35.5835C43.5608 36.2978 41.2989 36.655 39.3941 36.5359H38.9179C38.9179 36.655 38.9179 36.655 38.9179 36.774V37.1312C38.6798 46.8933 36.0607 49.2743 31.1796 50.3458C30.4653 50.3458 29.8701 50.3458 29.3939 50.3458ZM26.6557 33.9168C27.0129 34.9883 27.0129 36.4169 27.1319 38.4407C27.1319 38.7979 27.1319 39.2741 27.1319 39.6312C27.1319 40.7027 27.251 43.2028 27.6081 44.1552C27.6081 44.2742 27.7272 44.3932 27.7272 44.6314C28.2034 45.9409 28.3224 46.5362 30.1082 46.179C32.6082 45.7028 34.2749 45.2266 34.513 36.8931H36.775L34.6321 36.655V36.1788C34.8702 34.6311 34.9892 33.4406 36.0607 32.6073C36.775 32.1311 37.4893 32.012 38.2036 32.1311C37.7274 31.6549 37.4893 31.0596 37.4893 30.7025L37.2512 29.8691L37.7274 29.1548C43.6799 20.3451 45.3466 10.4639 44.1561 8.91629C39.5131 2.96378 31.5368 5.46384 30.5844 5.70194L30.4653 5.82099L29.751 5.94004L29.2748 5.82099C28.2034 5.70194 27.1319 5.58289 25.9414 5.58289C24.0366 5.58289 22.608 5.94004 21.2985 6.89244L20.3461 7.60674L19.2746 7.13054C17.1317 6.29719 10.822 4.51143 7.48863 6.89244C5.70288 8.08294 4.86953 10.702 4.98858 14.3926C5.22668 19.0356 9.27438 33.0835 11.6554 33.5597C11.6554 33.5597 11.8935 33.4406 12.2506 32.9644C14.3935 30.3453 16.4174 28.2024 16.5364 28.0834L17.7269 26.7738L19.1556 27.7262C19.6318 28.0834 20.227 28.2024 20.8223 28.3215L24.2747 25.4643L23.7985 30.5834C23.7985 30.7025 23.7985 30.9406 23.7985 31.0596V31.1787L29.1558 23.6785L26.6557 33.9168Z" fill="black"/>
<path d="M45.5847 31.0596C39.9893 32.2501 39.6321 30.3453 39.6321 30.3453C45.5847 21.5356 47.9657 10.4639 45.8228 7.72578C39.9893 0.225613 29.87 3.79712 29.751 3.79712C28.5605 3.55902 27.2509 3.43997 26.0604 3.43997C23.5604 3.43997 21.6556 4.15427 20.1079 5.22572C20.1079 5.22572 2.13134 -2.15539 2.96469 14.5116C3.08374 18.0831 8.08385 41.417 13.9173 34.393C16.0602 31.7739 18.2031 29.631 18.2031 29.631C19.2746 30.3453 20.4651 30.7025 21.7746 30.5834L21.8937 30.4644C21.8937 30.8215 21.8937 31.1787 21.8937 31.4168C20.346 33.0835 20.8222 33.4406 17.846 34.0359C14.7507 34.6311 16.5364 35.8216 17.7269 36.0597C19.1555 36.4169 22.4889 36.8931 24.6318 33.7978L24.5128 34.1549C25.108 34.6311 25.4652 37.2502 25.4652 39.6312C25.3461 42.0122 25.3461 43.5599 25.8223 44.8694C26.2985 46.179 26.7747 49.0362 30.7034 48.2028C34.0368 47.4885 35.7035 45.7028 35.9416 42.6075C36.0606 40.4646 36.5368 40.7027 36.5368 38.7979L36.894 37.8455C37.2511 34.8692 36.894 33.9168 39.0369 34.393H39.5131C41.0607 34.5121 42.9656 34.1549 44.1561 33.5597C46.5371 32.4882 47.9657 30.4644 45.5847 31.0596Z" fill="#336791"/>
<path d="M29.5128 49.0362C26.1794 49.0362 25.108 46.4171 24.6318 45.3456C24.0365 43.798 23.9175 37.8455 24.0365 32.7263C24.0365 32.3692 24.3937 32.012 24.7508 32.012C25.108 32.012 25.4651 32.3692 25.4651 32.7263C25.3461 38.4407 25.5842 43.6789 25.9413 44.8694C26.4175 46.06 27.3699 48.3219 30.8224 47.6076C33.7987 47.0124 34.8701 45.9409 35.3463 43.0837L36.5368 33.4406C36.5368 33.0835 36.894 32.8454 37.3702 32.8454C37.7273 32.8454 37.9654 33.2025 37.9654 33.6787L36.7749 43.4408C36.1797 46.8933 34.632 48.441 31.1796 49.1553C30.5843 49.0362 29.989 49.0362 29.5128 49.0362ZM11.6553 36.2978C11.2982 36.2978 11.0601 36.2978 10.822 36.1788C5.70281 34.5121 2.3694 16.7736 2.25035 14.5116C2.01225 9.74964 3.20275 6.41623 5.94091 4.51143C11.0601 0.820873 19.8698 4.27333 20.346 4.51143C20.7031 4.63048 20.8222 5.10668 20.7031 5.46383C20.5841 5.82098 20.1079 5.94003 19.7507 5.82098C19.6317 5.82098 11.2982 2.36853 6.65521 5.70193C4.39325 7.24958 3.44085 10.2258 3.5599 14.5116C3.67895 17.607 7.13141 33.5597 11.1791 34.9883C11.4172 35.1073 12.2506 35.3454 13.322 34.0359C15.4649 31.4168 17.3697 29.3929 17.4888 29.3929C17.7269 29.1548 18.2031 29.1548 18.4412 29.3929C18.6793 29.631 18.6793 30.1072 18.4412 30.3453C18.4412 30.3453 16.5364 32.3692 14.3935 34.8692C13.322 35.9407 12.3696 36.2978 11.6553 36.2978ZM39.5131 30.9406C39.394 30.9406 39.275 30.9406 39.1559 30.8215C38.7988 30.5834 38.7988 30.2263 38.9178 29.8691C44.8703 21.0594 47.0132 10.3449 45.2275 8.08294C39.8702 1.17802 30.8224 4.03523 29.989 4.39238H29.87C29.5128 4.51143 29.1557 4.39238 29.0366 4.03523C28.9176 3.67808 29.0366 3.32093 29.2747 3.20188C29.2747 3.20188 29.3938 3.20188 29.3938 3.08283H29.5128C31.1796 2.48758 40.5845 -0.0124779 46.1799 7.13053C48.799 10.4639 45.7037 22.2499 40.1083 30.5834C39.9893 30.8215 39.7512 30.9406 39.5131 30.9406Z" fill="white"/>
<path d="M39.8702 34.9883C38.7988 34.9883 37.9654 34.8692 37.3702 34.5121C36.7749 34.1549 36.6559 33.6787 36.6559 33.4406C36.5368 30.8215 37.9654 30.2263 38.6797 29.9882C38.5607 29.8691 38.4416 29.631 38.3226 29.512C37.8464 28.9167 37.2511 28.2024 36.7749 27.0119C36.6559 26.8929 36.4178 26.4167 36.1797 25.9405C34.7511 23.3214 31.7748 17.9641 33.6796 15.2259C34.513 13.9164 36.2987 13.4402 38.9178 13.6783C38.0845 11.2973 34.3939 4.15427 25.9413 4.03522C23.3222 4.03522 21.1793 4.74952 19.6317 6.41623C16.0602 9.98773 16.1792 16.5355 16.1792 16.6545C16.1792 17.0117 15.9411 17.3688 15.4649 17.3688C15.1078 17.3688 14.7506 17.1307 14.7506 16.6545C14.7506 16.4164 14.6316 9.51153 18.5602 5.46382C20.465 3.55902 22.846 2.60662 25.9413 2.72567C36.5368 2.84472 40.3464 12.964 40.4655 14.3926C40.5845 15.1069 39.9893 15.345 39.8702 15.345H39.6321C37.8464 15.1069 35.5844 14.9878 34.7511 16.1783C33.3225 18.2022 36.1797 23.3214 37.3702 25.4643C37.7273 26.0595 37.8464 26.4167 37.9654 26.6548C38.3226 27.6072 38.9178 28.2024 39.275 28.7977C39.6321 29.2739 39.9893 29.631 40.1083 30.2263C40.2274 30.4644 41.2988 31.2977 45.2275 30.4644C46.418 30.2263 47.0132 30.4644 47.2513 31.0596C47.6085 32.2501 45.3465 33.7978 44.156 34.274C43.2036 34.6311 41.4179 34.9883 39.8702 34.9883ZM37.9654 33.3216C38.4416 33.7978 41.8941 33.7978 43.6798 32.8454C44.6322 32.3692 45.2275 31.893 45.7037 31.5358C42.8465 32.1311 40.8226 32.012 39.6321 31.2977C39.5131 31.2977 39.5131 31.1787 39.394 31.1787C39.275 31.1787 39.1559 31.2977 39.1559 31.2977C38.5607 31.5358 37.9654 31.6549 37.9654 33.3216Z" fill="white"/>
<path d="M19.6317 37.0121C18.9174 37.0121 18.2031 36.8931 17.3697 36.774C17.1316 36.774 15.2268 36.1788 15.2268 34.9883C15.2268 33.9168 16.8935 33.5597 17.4888 33.4406C19.6317 32.9644 19.7507 32.8454 20.465 32.012C20.7031 31.7739 20.9412 31.4168 21.2984 31.0596C21.2984 31.0596 21.2984 31.0596 21.4174 30.9405C22.4889 29.75 23.5603 30.2262 23.9175 30.3453C24.6318 30.5834 25.227 31.2977 25.4651 32.1311C25.7032 32.8454 25.5842 33.6787 25.227 34.1549C23.7984 35.9407 21.8936 37.0121 19.6317 37.0121ZM16.7745 34.8692C17.0126 34.9883 17.3697 35.2264 17.7269 35.2264C19.6317 35.7026 22.1317 35.7026 23.9175 33.2025C24.1556 32.9644 24.0365 32.4882 24.0365 32.3692C23.9175 31.893 23.5603 31.5358 23.3222 31.4168C22.9651 31.2977 22.727 31.1787 22.2508 31.6549C22.0127 32.012 21.7746 32.2501 21.5365 32.4882C20.7031 33.5597 20.346 33.9168 17.8459 34.393C17.2507 34.7502 17.0126 34.8692 16.7745 34.8692Z" fill="white"/>
<path d="M21.6555 32.012C21.2984 32.012 21.0603 31.7739 20.9412 31.4168C20.9412 31.2977 20.9412 31.1787 20.9412 31.1787C19.2745 31.1787 17.7269 30.4644 16.5364 29.1548C14.9887 27.6072 14.2744 25.3452 14.6316 23.0833C14.9887 20.5832 14.8697 18.4403 14.7506 17.3688C14.7506 17.0117 14.7506 16.7736 14.7506 16.6545C14.7506 15.5831 17.965 14.1545 19.8698 13.9164C22.2508 13.6783 23.7984 14.7497 24.2746 16.8926C25.4651 22.6071 24.3937 25.1071 23.5603 27.0119C23.4413 27.3691 23.3222 27.7262 23.2032 27.9643L23.0841 28.2024C22.6079 29.3929 22.2508 30.3453 22.3698 31.0596C22.3698 31.5358 22.1317 31.893 21.6555 32.012ZM16.1792 16.8926C16.1792 17.0117 16.1792 17.1307 16.1792 17.2498C16.2983 18.3213 16.4173 20.7023 16.0602 23.2023C15.8221 24.9881 16.4173 26.7738 17.6078 28.0834C18.5602 29.0358 19.8698 29.631 21.1793 29.631C21.2984 29.0358 21.5365 28.3215 21.7746 27.7262L21.8936 27.4881C22.0127 27.131 22.1317 26.7738 22.3698 26.4167C23.2032 24.6309 24.1556 22.488 22.9651 17.1307C22.727 16.0593 22.2508 15.464 21.2984 15.345C19.3936 14.9878 16.7745 16.4164 16.1792 16.8926Z" fill="white"/>
<path d="M19.9889 16.6546C19.9889 16.8927 20.346 17.4879 20.9413 17.607C21.5365 17.726 22.0127 17.2498 22.0127 17.0117C22.0127 16.7736 21.6556 16.5355 21.0603 16.4165C20.4651 16.2974 19.9889 16.4165 19.9889 16.6546Z" fill="white"/>
<path d="M21.0603 17.726H20.9412C20.5841 17.726 20.2269 17.4879 19.9888 17.1307C19.8698 17.0117 19.7507 16.7736 19.7507 16.5355C19.7507 16.4164 19.7507 16.2974 19.8698 16.2974C20.1079 16.1783 20.5841 16.0593 21.0603 16.1783C21.5365 16.2974 22.0127 16.4164 22.1318 16.6545C22.2508 16.7736 22.2508 16.8926 22.2508 17.0117C22.2508 17.2498 21.7746 17.726 21.0603 17.726ZM20.2269 16.6545C20.2269 16.7736 20.5841 17.2498 21.0603 17.2498C21.5365 17.3688 21.8937 16.8926 21.8937 16.7736C21.8937 16.7736 21.6556 16.5355 21.0603 16.5355C20.5841 16.5355 20.2269 16.5355 20.2269 16.6545Z" fill="white"/>
<path d="M37.7273 16.1783C37.7273 16.4164 37.3702 17.0116 36.7749 17.1307C36.1797 17.2497 35.7035 16.7735 35.7035 16.5354C35.7035 16.2973 36.0606 16.0592 36.6559 15.9402C37.1321 15.8211 37.6083 15.9402 37.7273 16.1783Z" fill="white"/>
<path d="M36.5368 17.1307C36.2987 17.1307 36.0606 17.0117 35.8225 16.8926C35.5844 16.7736 35.4654 16.5355 35.4654 16.4164C35.4654 16.0593 35.9416 15.8212 36.5368 15.7021C37.013 15.5831 37.4892 15.7021 37.6083 15.8212C37.7273 15.9402 37.7273 15.9402 37.7273 16.0593C37.7273 16.4164 37.2511 17.0117 36.5368 17.1307C36.6559 17.1307 36.6559 17.1307 36.5368 17.1307ZM36.894 15.9402C36.7749 15.9402 36.6559 15.9402 36.5368 15.9402C35.9416 16.0593 35.5844 16.2974 35.5844 16.4164C35.5844 16.4164 35.7035 16.6545 35.8225 16.7736C35.9416 16.8926 36.1797 17.0117 36.5368 17.0117C37.013 16.8926 37.4892 16.4164 37.4892 16.1783C37.4892 16.1783 37.4892 16.1783 37.4892 16.0593C37.4892 16.0593 37.2511 15.9402 36.894 15.9402Z" fill="white"/>
<path d="M38.5607 29.1548C38.4416 29.1548 38.3226 29.1548 38.2035 29.0358C37.8464 28.7977 37.8464 28.4405 37.9654 28.0834C39.275 26.0595 39.0369 24.0357 38.7988 22.0118C38.6797 21.1785 38.5607 20.2261 38.5607 19.3927C38.5607 18.5594 38.6797 17.8451 38.7988 17.1308C38.9178 16.2974 39.0369 15.5831 39.0369 14.6307C39.0369 14.2736 39.275 13.9164 39.6321 13.9164C39.9893 13.9164 40.3464 14.1545 40.3464 14.5117C40.3464 15.5831 40.2274 16.4165 40.1083 17.3689C39.9893 18.0832 39.8702 18.6784 39.8702 19.5118C39.8702 20.2261 39.9893 21.0594 39.9893 21.8928C40.2274 24.0357 40.5845 26.4167 38.9178 28.9167C38.9178 29.0358 38.7988 29.1548 38.5607 29.1548Z" fill="white"/>
</svg>
