<svg width="64" height="55" viewBox="0 0 64 55" fill="none" xmlns="http://www.w3.org/2000/svg">
<path d="M26.4309 1.01123L42.0053 7.95361L49.3757 14.2585L62.6477 27.5057L49.3757 40.7529L42.0053 46.9334L26.4309 54.0001L13.8195 49.3492L3.48598 40.7529L1.20813 27.5057L3.48598 14.2585L13.8195 5.66217L26.4309 1.01123Z" fill="#FFC93E" stroke="white" stroke-width="1.66172"/>
<path d="M60.3076 27.553L37.957 37.8183L40.7633 46.5511L29.6289 44.5234L25.1385 43.7057L5.15948 40.0673L19.2009 27.553L19.3867 27.3873L4.78723 14.2991L14.3946 5.94706L25.017 10.9458L29.1038 10.2683L40.7633 8.3356L38.0702 17.0884L60.3076 27.553Z" fill="#FFC93E"/>
<path d="M13.5348 49.0351L60.3076 27.553M60.3076 27.553L14.3946 5.94706L4.78723 14.2991M60.3076 27.553H2.00222M4.78723 14.2991L40.7633 8.3356M4.78723 14.2991L40.7633 46.5511M40.7633 8.3356L5.15948 40.0673L40.7633 46.5511M40.7633 8.3356L26.8591 53.5254M40.7633 46.5511L26.2414 1.36121" stroke="white" stroke-width="1.66172"/>
</svg>
